<!DOCTYPE svg PUBLIC "-//W3C//DTD SVG 1.1//EN" "http://www.w3.org/Graphics/SVG/1.1/DTD/svg11.dtd">
<!-- Uploaded to: SVG Repo, www.svgrepo.com, Transformed by: SVG Repo Mixer Tools -->
<svg height="64px" width="64px" version="1.1" id="Layer_1" xmlns="http://www.w3.org/2000/svg" xmlns:xlink="http://www.w3.org/1999/xlink" viewBox="0 0 512.00 512.00" xml:space="preserve" fill="#584f4f" stroke="#584f4f" stroke-width="9.216">
<g id="SVGRepo_bgCarrier" stroke-width="0"/>
<g id="SVGRepo_tracerCarrier" stroke-linecap="round" stroke-linejoin="round"/>
<g id="SVGRepo_iconCarrier"> <path style="fill:#ffffff;" d="M512,256.8l-67.2-54.224l43.2-74.96l-91.2-7.968l-8-87.728L312,68.608L259.2,0l-49.6,70.176 l-80-41.472l-4.8,90.928l-89.6,4.784l33.6,86.128L0,252.016l70.4,52.64l-35.2,74.96l88,9.568l4.8,89.328l81.6-38.288L264,512 l48-71.776l75.2,36.688l6.4-89.328l88-1.6l-32-73.376L512,256.8z"/> <path style="fill:#584f4f;" d="M252.544,210.352c0,36.352-22.992,55.328-48.128,55.328c-26.464,0-47.312-19.776-47.312-52.384 c0-31.008,18.992-54.528,48.656-54.528C235.696,158.768,252.544,180.688,252.544,210.352z M187.296,212.224 c0,18.176,6.16,31.264,17.92,31.264c11.488,0,17.104-11.744,17.104-31.264c0-17.664-4.816-31.28-17.376-31.28 C192.928,180.944,187.296,194.832,187.296,212.224z M206.56,338.4l99.712-179.648h21.92L228.208,338.4H206.56z M377.648,282.528 c0,36.352-22.992,55.344-48.128,55.344c-26.192,0-47.04-19.776-47.312-52.384c0-31.008,18.992-54.544,48.656-54.544 C360.8,230.928,377.648,252.848,377.648,282.528z M312.688,284.4c-0.272,18.192,5.872,31.28,17.648,31.28 c11.504,0,17.104-11.76,17.104-31.28c0-17.648-4.544-31.28-17.104-31.28C318.032,253.12,312.688,267.024,312.688,284.4z"/> </g>
</svg>